<svg width="75" height="84" viewBox="0 0 75 84" fill="none" xmlns="http://www.w3.org/2000/svg">
<path d="M9.88322 63.1605L9.88325 63.1605C12.3579 67.9835 14.9839 72.5985 17.2194 76.1464C18.3375 77.9209 19.3543 79.4226 20.2029 80.5479C20.6273 81.1107 21.0056 81.5739 21.3302 81.9278C21.6615 82.289 21.9132 82.5101 22.0839 82.6153L22.0845 82.6157C23.125 83.2588 24.4772 83.4927 26.1134 83.3214C27.75 83.15 29.6375 82.576 31.7067 81.6437C35.8448 79.7794 40.6319 76.5183 45.4607 72.3641C55.1205 64.054 64.853 52.2525 69.815 41.1569L70.2715 41.361L69.815 41.1568C72.8589 34.3515 74.3437 30.6351 74.4884 27.674C74.6299 24.7766 73.4863 22.5604 70.9738 18.7285L70.9738 18.7284C67.6859 13.7112 63.415 11.174 58.7491 11.0245C54.0644 10.8745 48.8739 13.128 43.7659 17.9228C42.0967 19.4909 40.7585 20.6946 39.6913 21.5386C38.6454 22.3658 37.7899 22.9065 37.0985 23.0557C36.7323 23.1347 36.3641 23.1146 36.0386 22.9219C35.7206 22.7337 35.5203 22.4258 35.3895 22.0877C35.1363 21.4328 35.0665 20.4553 35.0665 19.2552C35.0665 17.4694 34.3579 15.4006 33.1279 13.2774C31.9019 11.1612 30.1797 9.0287 28.2068 7.12537C26.2342 5.22218 24.0228 3.5596 21.8268 2.37545C19.6246 1.18797 17.4721 0.5 15.6079 0.5C13.9615 0.5 11.9231 1.09889 9.96447 2.09612C8.00999 3.09126 6.18636 4.45708 4.95761 5.93888L9.88322 63.1605ZM9.88322 63.1605C4.81312 53.2821 1.67576 41.2401 0.77184 30.5084M9.88322 63.1605L0.77184 30.5084M0.77184 30.5084C0.319987 25.1438 0.427562 20.1216 1.1236 15.8718M0.77184 30.5084L1.1236 15.8718M1.1236 15.8718C1.82122 11.6125 3.10215 8.17706 4.95757 5.93893L1.1236 15.8718ZM44.2181 27.5763C53.9665 15.994 64.1766 13.7847 67.5348 22.53C71.0389 31.6587 56.143 57.5009 41.0977 68.3943M21.2036 71.1465C15.4246 64.0098 5.00729 34.0852 5.00729 24.6137C5.00729 15.8989 12.2159 6.36975 17.9678 7.47606C21.1493 8.0903 25.628 14.511 28.0727 21.9667M28.5478 21.8109L28.5478 21.8109C27.3118 18.0415 25.5602 14.5277 23.7067 11.8698C22.78 10.5411 21.8203 9.41536 20.8773 8.57718C19.9418 7.74566 18.9847 7.16316 18.0626 6.98513L18.0622 6.98506C16.4692 6.67867 14.8159 7.11624 13.2625 8.03069C11.7081 8.94565 10.2213 10.3554 8.93179 12.0604C6.35625 15.4656 4.50729 20.1301 4.50729 24.6137C4.50729 27.0476 5.17228 30.7449 6.24034 34.9984C7.31159 39.2645 8.79896 44.1305 10.4661 48.92C12.1332 53.7094 13.9826 58.4294 15.7793 62.4029C17.5702 66.3633 19.3267 69.6231 20.8151 71.4611L20.8151 71.4612L26.764 78.8049L27.0621 79.1729L27.4457 78.8952L41.3909 68.7993L41.0977 68.3943L41.3909 68.7993C48.9872 63.2992 56.5156 54.0537 61.7054 45.0501C64.3021 40.5453 66.3247 36.0817 67.4777 32.1565C68.6238 28.2552 68.939 24.7929 68.0015 22.3508L68.0015 22.3508C67.1285 20.0772 65.7904 18.4688 64.0806 17.5589C62.3721 16.6497 60.3506 16.4691 58.167 16.9416C53.8206 17.8822 48.7418 21.4251 43.8357 27.2542C41.3894 30.1586 39.015 32.6324 37.1637 34.2782C36.2349 35.1039 35.4548 35.7058 34.8733 36.0514C34.579 36.2262 34.365 36.3174 34.2262 36.3504C34.2086 36.3545 34.1939 36.3574 34.1817 36.3595C34.1292 36.2899 34.0481 36.1659 33.939 35.9695C33.7969 35.7137 33.6275 35.3733 33.4342 34.9547C33.0482 34.1183 32.5774 32.9927 32.0533 31.6557C31.0057 28.983 29.7525 25.4857 28.5478 21.8109ZM34.1336 36.3633C34.1337 36.3632 34.1361 36.3631 34.1402 36.3638C34.1355 36.3638 34.1334 36.3635 34.1336 36.3633ZM44.6005 27.8984L44.6006 27.8982C49.4428 22.1451 54.3433 18.7922 58.3785 17.919C60.3858 17.4846 62.1558 17.6674 63.6108 18.4417C65.0645 19.2153 66.2619 20.6101 67.068 22.7092C67.8826 24.8314 67.6498 28.0227 66.5183 31.8747C65.3937 35.7027 63.409 40.0922 60.8391 44.5507C55.6957 53.4737 48.2534 62.596 40.8044 67.9893L27.2429 77.8075L21.5922 70.8318C20.191 69.1015 18.4783 65.9445 16.6905 61.9909C14.9086 58.0503 13.0701 53.359 11.4105 48.5912C9.75095 43.8235 8.27281 38.9864 7.21023 34.7548C6.14446 30.5105 5.50729 26.9155 5.50729 24.6137C5.50729 20.3825 7.26262 15.925 9.72935 12.6636C10.961 11.0352 12.3548 9.72541 13.7698 8.89247C15.1856 8.05901 16.5904 7.7203 17.8734 7.96706C18.5419 8.09624 19.3377 8.54663 20.2129 9.32461C21.0809 10.096 21.9901 11.1566 22.8864 12.4418C24.6787 15.0118 26.3888 18.4361 27.5976 22.1224C28.807 25.8117 30.0665 29.3273 31.1223 32.0207C31.65 33.3667 32.1287 34.5124 32.5263 35.3738C32.7249 35.8041 32.9059 36.1691 33.0649 36.4552C33.2158 36.7267 33.3705 36.9716 33.5221 37.1231C33.8064 37.4073 34.1904 37.3866 34.4571 37.3233C34.7407 37.256 35.0561 37.1059 35.384 36.9111C36.0469 36.5172 36.8826 35.8661 37.8281 35.0256C39.7255 33.3388 42.1335 30.8275 44.6005 27.8984Z" stroke="white"/>
</svg>
